<?xml version="1.0" encoding="UTF-8"?>
<svg width="438px" height="629px" viewBox="0 0 438 629" version="1.1" xmlns="http://www.w3.org/2000/svg" xmlns:xlink="http://www.w3.org/1999/xlink">
    <!-- Generator: Sketch 48 (47235) - http://www.bohemiancoding.com/sketch -->
    <title>Yacht</title>
    <desc>Created with Sketch.</desc>
    <defs></defs>
    <g id="Desktop-HD" stroke="none" stroke-width="1" fill="none" fill-rule="evenodd" transform="translate(-501.000000, -1076.000000)">
        <g id="Details" transform="translate(-136.000000, 1064.000000)" fill="#FFFFFE">
            <path d="M902,252.953252 C902.332756,252.969512 902.665511,252.98374 903,253 C903,248 903,243 903,238 C902.665511,238.014228 902.332756,238.030488 902,238.046748 C902,243.014228 902,247.98374 902,252.953252 Z M893,290 C893.332564,289.970776 893.667436,289.941553 894,289.914416 C894,284.608219 894,279.30411 894,274 C893.667436,274.033399 893.332564,274.066797 893,274.102283 C893,279.402218 893,284.700065 893,290 Z M892,147.001816 C891.666667,147.001211 891.333333,147.000605 891,147 C891,151.99926 891,156.998722 891,161.998184 C891.333333,161.998789 891.666667,161.999395 892,162 C892,157.00074 892,152.001076 892,147.001816 Z M897,454 C896.666667,454.023121 896.333333,454.044141 896,454.067262 C896,459.376774 896,464.688387 896,470 C896.333333,469.974777 896.666667,469.949553 897,469.92433 C897,464.616921 897,459.309511 897,454 Z M859,519 C849.207896,513.621109 846.816009,513.71242 846,519 C849.827421,519 853.58066,519 859,519 Z M896,418 C895.666667,418.059181 895.333333,418.120476 895,418.18177 C895,423.453104 895,428.726552 895,434 C895.333333,433.974637 895.666667,433.94716 896,433.921797 C896,428.614531 896,423.307266 896,418 Z M891,73 C890.667254,73.0158491 890.334507,73.0314924 890,73.0471357 C890,78.3648257 890,83.68231 890,89 C890.334507,88.9853859 890.667254,88.9711834 891,88.9567751 C891,83.6378501 891,78.318925 891,73 Z M895,451.987353 C895.665285,451.991569 896.332642,451.995784 897,452 C896.749223,446.331928 896.498446,440.665964 896.249741,435 C895.833161,435.046373 895.41658,435.092746 895,435.141228 C895,440.756603 895,446.371978 895,451.987353 Z M893,308 C893.333871,307.991786 893.666129,307.985626 894,307.977413 C894,302.650924 894,297.324435 894,292 C893.666129,292.004107 893.333871,292.008214 893,292.01232 C893,297.340862 893,302.671458 893,308 Z M890,144 C890.610613,143.973889 891.22314,143.947777 891.833753,143.921666 C891.205913,138.519446 893.499061,132.880998 890,127 C890,133.151905 890,138.575952 890,144 Z M895,346 C894.66559,346.008235 894.332795,346.014411 894,346.022645 C894,351.34843 894,356.674215 894,362 C894.332795,361.989707 894.66559,361.979413 895,361.96912 C895,356.645394 895,351.323726 895,346 Z M876,68.705079 C875.33736,68.469918 874.672753,68.234959 874.010112,68 C872.34073,72.708069 870.671348,77.416138 869,82.124005 C869.810112,82.416138 870.618258,82.708069 871.426404,83 C872.950281,78.234959 874.476124,73.469918 876,68.705079 Z M897,471 C896.33278,471.038294 895.66556,471.074572 895,471.11085 C895.248963,477.074572 895.499585,483.038294 895.748548,489 C896.166805,488.97783 896.583402,488.957676 897,488.935506 C897,482.957676 897,476.97783 897,471 Z M909.53735,469 C909.358909,469.333333 909.178441,469.666667 909,470 C919.331306,470 929.664639,470 939.997972,470 C939.997972,469.666667 939.997972,469.333333 940,469 C929.845107,469 919.692242,469 909.53735,469 Z M887,51.7962797 C886.141547,51.5309913 885.283095,51.2654957 884.426648,51 C882.95043,56.1296001 881.476218,61.2592002 880,66.3888004 C880.623782,66.5925336 881.245559,66.7962668 881.869341,67 C883.580229,61.9321623 885.289112,56.8643247 887,51.7962797 Z M895,364 C894.665957,364.021092 894.334043,364.042184 894,364.063275 C894,369.709553 894,375.355831 894,381 C894.334043,380.964144 894.665957,380.928288 895,380.892432 C895,375.263027 895,369.631514 895,364 Z M756,398.787041 C756.878154,398.858691 757.756309,398.930341 758.634669,399 C759.655371,396.410659 760.67628,393.823308 762,390.465723 C759.529097,390.274657 757.822433,390.141309 756,390 C756,393.313799 756,396.05042 756,398.787041 Z M893,220 C892.666129,220.006083 892.333871,220.012166 892,220.016221 C892,225.677481 892,231.33874 892,237 C892.333871,236.991889 892.666129,236.983779 893,236.975668 C893,231.316436 893,225.657204 893,220 Z M902.811924,220 C902.207949,220.051033 901.603975,220.102065 901,220.153098 C901.276982,225.768732 901.552041,231.384366 901.829023,237 C902.454156,236.946926 903.079289,236.893852 903.704422,236.840778 C903.440904,231.223103 905.002775,225.446206 902.811924,220 Z M896,398 C895.606891,392.16106 895.25564,386.970438 894.784273,380 C891.97973,388.542304 892.553015,395.378186 896,398 Z M812,263 C816.182387,261.761071 819.164495,253.823117 817.557927,247 C815.460664,253.036527 813.790555,257.844133 812,263 Z M857,515 C857,512.337064 857,510.165622 857,506 C853.713631,508.501791 851.511463,510.177708 848,512.848702 C852.081701,513.823635 854.388912,514.37556 857,515 Z M896.38076,399 C895.587905,399.079211 894.792854,399.158423 894,399.237634 C894.456825,404.82509 894.913649,410.412545 895.37267,416 C896.095244,415.953286 896.817818,415.906571 897.540391,415.857826 C897.437167,410.223656 899.222736,404.491995 896.38076,399 Z M923,451 C918.869472,455.098814 919.132692,462.263144 923,466 C923,461.205581 923,456.55271 923,451 Z M1050,527 C1046.68679,524.376553 1042.14734,524.290461 1032,527 C1037.80162,527 1043.60324,527 1050,527 Z M903,203 C898.930511,205.692534 899.070098,215.178722 903,218 C903,213.006297 903,208.119778 903,203 Z M807.132841,278.410355 C807.700503,278.605533 808.268165,278.802767 808.836024,279 C810.515824,274.120531 812.195624,269.241063 814,264 C809.609019,264.466374 806.284393,272.337214 807.132841,278.410355 Z M750.62315,422 C752.374868,417.112452 754.126398,412.226961 756,407 C750.987488,407.631514 748.831745,412.862589 750.62315,422 Z M1025,468.461 C1024.99603,468.306665 1024.99405,468.15233 1024.99008,468 C1011.66006,468 998.330028,468 985,468 C985.001983,468.15233 985.005949,468.306665 985.009915,468.461 C998.339943,468.461 1011.66997,468.461 1025,468.461 Z M908.261155,154 C906.32627,163.561092 905.755164,167.801238 913,165.289919 C911.412745,161.510228 909.83695,157.755208 908.261155,154 Z M1017,519.435798 C1016.474,519.289883 1015.94619,519.143969 1015.41838,519 C1014.07799,522.336576 1012.73761,525.673152 1011,530 C1014.16687,529.764591 1015.71765,529.649805 1017,529.552529 C1017,525.85214 1017,522.643969 1017,519.435798 Z M1053,525 C1055.03808,527.929078 1056.45628,529.964539 1057.87261,532 C1059.91633,530.097589 1061.95816,528.193191 1064,526.288794 C1063.62056,525.859858 1063.24112,525.430922 1062.86356,525 C1060.07223,525 1057.28091,525 1053,525 Z M1046.61481,465 C1046.74182,464.363636 1046.87091,463.729167 1047,463.094697 C1041.13048,462.0625 1035.26304,461.032197 1029.39352,460 C1029.26235,460.645833 1029.13117,461.289773 1029,461.933712 C1034.02626,467.174242 1040.84731,463.458333 1046.61481,465 Z M893,470.025951 C892.333333,470.01597 891.666667,470.007985 891,470 C891,476.655355 891,483.31071 891,489.966064 C891.666667,489.978042 892.333333,489.988023 893,490 C893,483.342649 893,476.683302 893,470.025951 Z M808,281.05017 C807.116875,280.700113 806.233751,280.350057 805.350626,280 C803.871969,284.288693 802.323186,288.551382 801.012942,292.900085 C800.866875,293.386163 801.990901,294.822395 802.685447,294.982421 C803.321311,295.130445 804.656989,294.314313 804.850292,293.636204 C806.032273,289.485533 806.97644,285.254849 808,281.05017 Z M925.80671,503 C926.205109,502.984186 926.601601,502.968371 927,502.952557 C926.027831,492.635697 925.057568,482.31686 924.085398,472 C923.38963,472.092909 922.693862,472.185818 922,472.278727 C923.267632,482.518493 924.537171,492.760235 925.80671,503 Z M751,442.816745 C748.996687,442.501746 746.361174,441.699741 746.182417,442.118358 C744.233617,446.665124 742.669107,451.404619 741,456.092305 C741.661093,456.39487 742.322187,456.697435 742.983087,457 C745.525562,452.500899 748.068228,448.00387 751,442.816745 Z M654.922519,528 C652.624894,531.491743 651.088278,533.827523 649,537 C653.473682,537 656.549113,537 661,537 C658.869733,533.845872 657.294926,531.513761 654.922519,528 Z M870,85 C864.969582,88.0776385 864.068441,93.6328346 862,100 C870.794677,97.7986252 867.368821,89.5731905 870,85 Z M877.788879,523 C877.193254,523.415689 876.59763,523.83333 876,524.249019 C876.569553,526.719733 876.346946,530.365306 877.909207,531.358666 C879.858523,532.599878 883.275843,531.65726 886.059435,531.65726 C886.374294,530.82393 886.687147,529.988649 887,529.155319 C883.929626,527.104197 880.859253,525.051123 877.788879,523 Z M910,393.615245 C909.621513,391.248977 909.511372,389.311396 908.98069,387.511759 C908.03147,384.296607 906.82592,381.166342 905.728509,378 C905.173796,381.193931 904.440854,384.368762 904.106424,387.590281 C903.663855,391.819852 904.412818,395.162338 910,393.615245 Z M798.822736,311 C804.133862,299.333587 804.250325,297.695057 799.911608,295 C798.292246,299.564766 796.685132,304.093029 795,308.842332 C796.112994,309.470976 797.25614,310.115843 798.822736,311 Z M870,522 C866.611231,522 863.887494,522 861.194599,522 C860.458245,529.257508 861.487598,529.955758 870,528.176976 C870,526.255814 870,524.313197 870,522 Z M846,522.59328 C846.405877,527.360256 850.715335,528.898866 859,527.509467 C858.711509,521.496488 858.51255,521.417039 846,522.59328 Z M1015.0635,457 C1014.73707,465.897269 1015.25031,466.123619 1027,463.641515 C1025.6687,456.464113 1019.29339,459.764557 1015.0635,457 Z M689,539 C680.980796,539 674.764491,539 667,539 C668.781165,540.954553 669.816674,543.028615 670.784138,542.999701 C676.482485,542.83393 682.574684,543.843975 689,539 Z M646,544 C652.403505,544 657.812494,544 663.221482,544 C663.480921,543.495392 663.740561,542.990783 664,542.486175 C662.49321,541.39215 660.923963,539.291028 659.491442,539.392798 C655.109001,539.698107 649.630148,536.589889 646,544 Z M825,533 C824.899676,532.333333 824.799353,531.666667 824.699029,531 C813.132487,531.511509 801.566343,532.024723 790,532.537937 C790.044876,532.69139 790.089753,532.846547 790.134629,533 C801.756419,533 813.37821,533 825,533 Z M903.582213,183 C906.263123,174.471803 905.072785,168.093517 900.597537,167 C899.479609,180.423778 899.647386,181.329088 903.582213,183 Z M900,184 C901.272669,190.170312 898.1281,196.406145 902.825475,202 C906.519184,193.599349 905.461718,185.199308 900,184 Z M1011,517 C1007.38534,517 1004.07707,517 1001,517 C1001,519.765783 1001,522.074476 1001,524.265023 C1008.1391,526.902976 1009.3891,521.964077 1011,517 Z M889.978119,236 C889.978119,230.712148 890.059502,225.804386 889.908362,220.904977 C889.877359,219.921337 888.953081,218.966934 888.439593,218 C887.532754,218.883397 886.122116,219.603898 885.825649,220.681518 C885.215277,222.893143 885.699699,225.537069 884.847116,227.57118 C882.516075,233.120084 885.24628,234.769927 889.978119,236 Z M876,515.630765 C869.8098,513.159893 864.600067,511.079947 859.392343,509 C858.928229,509.347905 858.464114,509.693939 858,510.041844 C859.062842,512.002081 859.800201,515.374513 861.246791,515.662563 C865.58857,516.528584 870.217658,520.477116 876,515.630765 Z M1021.38081,515 C1020.91987,515.321455 1020.45892,515.642909 1020,515.964364 C1020,519.784 1020,523.603636 1020,528 C1023.24683,527.829818 1026.15604,527.676655 1031,527.421382 C1027.09814,522.382109 1024.23948,518.691055 1021.38081,515 Z M777,524 C771.13948,524.640004 766.647569,525.132469 762,525.638889 C762,528.605638 762,531.175624 762,533.998821 C769.213078,534.080566 772.778432,529.903591 777,524 Z M905.078718,395 C905.078718,399.758062 905.270083,403.258477 905.035966,406.728612 C904.653236,412.413255 907.326237,413.848546 913,412.562638 C909.325388,407.289809 914.0749,399.156491 905.078718,395 Z M888.290825,180.036333 C887.459698,180.024013 886.628571,180.012111 885.799481,180 C884.448899,184.106669 882.670531,188.142551 882.010519,192.362394 C881.810885,193.650335 884.497789,195.777902 886.249675,196.861835 C887.090987,197.383025 890.016229,196.276749 889.999932,196.06773 C889.592517,190.710915 888.918245,185.375399 888.290825,180.036333 Z M1035.01847,514.56339 C1034.64933,521.890399 1039.84344,523.98572 1048,520.033141 C1046.26863,513.435432 1046.26863,513.435432 1035.01847,514.56339 Z M838,497 C851.733697,506.334332 854.258481,506.332335 861,497 C855.101424,497 849.601072,497 844.098699,497 C842.354192,497 840.609685,497 838,497 Z M826.456083,509 C821.684342,515.912612 829.934113,515.964327 832.691156,517.808839 C837.979843,521.344634 839.810821,516.182681 843,513.051032 C837.103752,511.606834 831.933674,510.340767 826.456083,509 Z M751.846258,442 C753.848341,437.120253 755.868672,432.196203 758,427.00211 C755.386118,426.194093 753.435018,425.592827 751.516465,425 C746.774265,439.905063 746.774265,439.905063 751.846258,442 Z M977,459.205235 C979.568693,466.622369 980.510479,466.926642 993,464.986411 C993,462.90985 993,460.817484 993,458 C987.444502,458.418869 982.321604,458.806124 977,459.205235 Z M1050,514 C1050.82698,518.330093 1051.48486,521.334453 1056.90253,520.970115 C1062.39238,520.598147 1067.98122,521.139885 1069,514 C1062.7306,514 1056.67568,514 1050,514 Z M905.007683,414 C904.955518,428.337688 904.955518,428.337688 912.541723,430 C913.899862,418.164824 912.480244,414.994975 905.007683,414 Z M928,519 C928.975873,523.37792 929.590779,526.130299 930.453325,530 C934.782845,529.105382 938.860527,528.608583 942.526873,527.219069 C943.280289,526.931649 943.07672,521.7086 942.319107,521.480187 C938.268707,520.263886 933.90351,519.907943 928,519 Z M948,528 C953.016952,528 957.749925,528 962.452031,528 C963.841055,518.524483 963.721702,519.374372 948,521.048057 C948,523.282743 948,525.502519 948,528 Z M984,528 C989.92322,527.348987 995.121062,526.778099 1001,526.131093 C1000.27673,523.154462 999.692632,520.734698 999.270901,519 C993.847432,519 989.018606,519 984,519 C984,521.990652 984,524.384376 984,528 Z M885.278271,215 C886.274961,209.596572 887.106813,205.101017 888,200.258026 C885.251438,199.468712 882.922635,198.800366 880.135738,198 C879.006796,203.317021 878.017773,207.975343 877,212.766288 C880.162572,213.619504 882.361039,214.212293 885.278271,215 Z M753,422.209367 C758.019368,427.469747 759.972907,424.390551 761.629784,420.379851 C762.419405,418.468698 763.752651,416.641276 763.949719,414.671512 C764.154301,412.62639 763.727801,408.965265 762.794086,408.636622 C760.550435,407.845367 757.360162,407.0269 756.267713,411.274139 C755.24943,415.232507 753.939687,419.100865 753,422.209367 Z M1003.10547,465.864929 C1005.54737,465.864929 1007.58783,466.236124 1009.36829,465.747815 C1010.80764,465.354785 1013.15802,463.401549 1012.99162,463.046235 C1012.17835,461.317303 1010.91372,459.528822 1009.29757,458.476774 C1008.05999,457.670865 1005.94257,457.458471 1004.42834,457.809815 C1000.88821,458.629618 994.939467,453.925177 994.088755,460.836934 C993.144444,468.518869 999.977181,464.908161 1003.10547,465.864929 Z M915.863603,446 C916.669851,432.722229 913.99303,428.837337 905.390391,430.285477 C904.416092,443.35878 904.416092,443.35878 915.863603,446 Z M882.220249,230.895044 C882.87907,226.870512 883.992572,222.779322 883.999995,218.686048 C884.003707,217.079985 881.754434,214.878158 880.099028,214.084501 C879.154407,213.63247 876.819765,215.080218 876.044026,216.377984 C875.069712,218.009044 875.054865,220.360853 874.613176,222.400199 C872.983752,229.932656 874.303252,231.455395 882.220249,230.895044 Z M904.194236,166 C906.252444,150.180339 904.306467,138.888377 899.056322,134 C899.056322,138.713117 898.904144,143.23265 899.100074,147.735454 C899.296003,152.192849 899.615577,156.676733 900.368858,161.056854 C900.623757,162.535217 902.371903,163.732167 904.194236,166 Z M981.508135,525.082393 C982.978998,519.112395 981.261655,516.411373 974.855184,517.106979 C971.660966,517.452932 968.386592,517.166179 965,517.166179 C965,520.394455 965,523.097327 965,526 C970.74318,525.679947 976.06554,525.385795 981.508135,525.082393 Z M814,522 C810.197667,513.444312 807.050406,506.363884 803.332639,498 C801.875443,503.223601 800.823578,506.547526 800.037909,509.932665 C799.232452,513.403503 798.687149,516.931474 798,520.583914 C803.647573,521.083829 808.269527,521.491923 814,522 Z M906,124 C904.115411,105.895068 902.297167,88.4477352 900.480995,71 C900.319281,71.0157051 900.159641,71.0310075 900,71.0465112 C900,88.6378069 900,106.229103 900,124 C901.94886,124 903.586731,124 906,124 Z M904,340.344622 C909.390374,341.239044 914.438503,342.075697 920,343 C916.693659,336.541833 913.680672,330.655378 910.783804,325 C908.302521,325 906.28164,325 904,325 C904,330.111554 904,334.962151 904,340.344622 Z M908.162628,520.000848 C907.304947,529.437555 909.291155,531.690385 927.630748,528.859564 C928.552037,520.208772 928.367369,520.00657 919.597686,520.000848 C915.87765,519.99894 912.157614,520.000848 908.162628,520.000848 Z M827.485081,490.180991 C828.811643,486.453359 827.575,484.626723 823.775556,483.707686 C818.572764,482.447345 813.49889,480.716046 807.7485,479 C806.848701,483.255793 806.010733,487.217952 805,492 C813.211148,491.334556 820.143624,490.775887 827.485081,490.180991 Z M826,507.626008 C844.354769,514.300636 846.619874,515.689146 852,506.403354 C844.232493,503.560418 836.628956,500.779146 829.03905,498 C828.001912,501.285218 827.053374,504.289758 826,507.626008 Z M1031.0717,477 C1030.71447,477.213198 1030.35723,477.426396 1030,477.639594 C1030.65679,485.579244 1031.61872,493.505076 1031.89223,501.458544 C1032.23458,511.354483 1032.89137,512.144105 1043,510.065425 C1038.98669,498.941624 1035.0292,487.969825 1031.0717,477 Z M813.860617,517.922997 C814.496905,517.947971 815.132992,517.975026 815.76928,518 C818.255268,510.817898 826.484613,506.734651 825.977561,498 C819.048054,498 812.765942,498 806,498 C808.853707,505.23205 811.357061,511.577523 813.860617,517.922997 Z M821.788503,428 C820.722348,431.91871 819.443485,435.271132 819.026312,438.732693 C818.824661,440.406844 819.810799,443.390665 821.000799,443.878702 C826.027389,445.929692 831.333033,447.266131 836.979251,449 C837.250464,447.023142 837.312387,445.791724 837.597271,444.617964 C840.060103,434.459796 840.082218,434.435085 830.970745,431.047656 C828.116675,429.985095 825.192439,429.122279 821.788503,428 Z M725.218769,527.717082 C724.443199,536.516889 725.409795,537.523785 733.407994,536.817426 C738.683153,536.352264 743.979426,536.095754 749.249759,535.592307 C752.231187,535.307083 755.179437,534.711752 758,534.277217 C758,531.336929 758,528.905831 758,526 C746.944767,526.580018 736.335934,527.13515 725.218769,527.717082 Z M959.308452,486 C955.374348,488.925198 951.693993,490.874002 949.156505,493.807171 C947.292351,495.961216 946.409226,499.340737 946.049582,502.289847 C945.719908,504.985891 947.148494,507.867251 946.978662,510.615104 C946.571066,517.141006 951.072608,515.827855 954.804912,515.943428 C958.609145,516.062987 962.587206,516.49539 961.927859,510.613111 C961.056721,502.819889 960.263507,495.016704 959.308452,486 Z M874.399492,497.508675 C871.521234,497.508675 869.23245,496.818708 867.919347,497.645461 C864.705699,499.67312 861.943303,502.402816 859,504.848881 C861.227804,506.564747 863.335681,508.477747 865.724065,509.938144 C867.604283,511.08876 869.769074,511.979884 871.925735,512.414383 C873.214446,512.673875 874.730817,511.83304 874.86294,511.800855 C878.596951,514.323359 882.078911,516.674881 887,520 C887,511.028413 887,503.829017 887,496 C883.022069,496.663817 879.269764,497.289414 875.423956,497.933115 C875.423956,501.640432 875.423956,504.987679 875.423956,508.334926 C875.082468,508.344984 874.74098,508.357053 874.399492,508.369122 C874.399492,505.029922 874.399492,501.690722 874.399492,497.508675 Z M721.535709,537.935031 C722.685719,527.088622 722.229859,526.634924 713.924365,527.124918 C706.839012,527.544337 699.739714,527.715734 692.649779,528.064577 C682.487971,528.564653 672.329152,529.127239 662.169137,529.663611 C661.779225,530.101177 661.389712,530.538744 661,530.97631 C663.479535,533.295212 665.896906,537.539809 668.448765,537.624499 C686.192629,538.211282 703.964187,537.935031 721.535709,537.935031 Z M674,580 C674.022678,579.828849 674.045356,579.655754 674.067834,579.482658 C710.058381,579.482658 746.052139,579.776337 782.038673,579.406807 C824.051159,578.973096 866.056822,577.952026 908.065495,577.205186 C935.116656,576.724797 962.165811,576.283306 989.214965,575.797083 C990.479319,575.773744 991.73966,575.47423 993,575.305024 C992.965883,574.869368 992.931765,574.433712 992.897648,574 C886.599569,575.999352 780.299283,578.000648 674,580 Z M1015,470.394425 C1016.23462,485.335525 1017.39769,499.417872 1018.56894,513.593385 C1019.84035,513.747313 1020.92575,513.714907 1021.90077,514.022762 C1029.5415,516.430918 1032.37049,514.567585 1031.96167,506.425627 C1031.50789,497.374281 1030.06273,488.371544 1029.60282,479.320198 C1029.12246,469.875932 1029.41068,469.851628 1019.83626,470.044037 C1018.42381,470.072392 1017.01341,470.244548 1015,470.394425 Z M989.503656,516.654035 C992.673613,515.892069 998.489279,518.756572 997.967072,511.902952 C997.053211,499.941715 995.258126,488.043635 994.505415,476.076286 C994.205554,471.339465 992.763367,469.581238 988.183861,470.082424 C986.107275,470.310607 983.99601,470.294308 981.901065,470.267822 C978.539361,470.223001 977.709134,471.816203 978.08243,475.008718 C979.412425,486.342454 980.979044,497.680265 981.51757,509.06086 C981.794992,514.893771 982.823086,518.102585 989.503656,516.654035 Z M945.755446,517 C945.853782,515.178502 946.094604,513.93593 945.960145,512.735719 C944.800185,502.381624 943.489711,492.043667 942.381929,481.683521 C941.225982,470.853376 941.302243,470.82917 930.585656,471.051058 C929.208956,471.081315 927.838276,471.389941 926,471.627966 C927.298433,486.91604 928.566763,501.861196 929.853155,517 C935.380024,517 940.256673,517 945.755446,517 Z M1013.00052,470.076689 C1007.73848,470.076689 1003.59916,469.8307 999.52177,470.219847 C998.211252,470.344858 995.927835,472.242202 996.001751,473.173736 C997.106502,487.056007 998.532888,500.914082 999.905336,515 C1005.43908,515 1010.83697,515 1017,515 C1015.63155,499.639776 1014.33302,485.043733 1013.00052,470.076689 Z M926,517.287363 C923.92616,501.568608 921.957838,486.661377 920.024013,472 C914.762304,472 910.507076,472 906.018491,472 C906.018491,486.217638 905.927177,499.977544 906.150389,513.733453 C906.174739,515.230573 907.972608,517.944976 909.009528,517.97296 C914.5188,518.12487 920.048363,517.601178 926,517.287363 Z M801,498.064872 C787.857241,498.064872 775.572778,498.169774 763.29259,498.001535 C759.513522,497.948095 757.792655,499.284107 758.019851,502.910144 C758.360849,508.349198 758.582141,513.804087 759.231359,519.207515 C759.374884,520.402999 761.409265,522.514888 762.03609,522.342691 C766.608511,521.095746 773.310793,526.580324 775.860234,518.396011 C776.042438,517.810145 778.533655,517.63201 779.918817,517.723057 C785.233697,518.075368 790.535141,518.613732 795.734794,519.072924 C797.604478,511.613027 799.330842,504.725141 801,498.064872 Z M893.846321,31 C893.235177,31.0050155 892.625978,31.010031 892.014833,31.0150465 C892.014833,32.9728909 891.977853,34.9317384 892.020672,36.8887804 C892.411883,55.2358231 892.855644,73.5814615 893.207928,91.9295074 C893.651689,115.038853 894.044846,138.149402 894.41854,161.260352 C894.846731,187.680318 895.175659,214.102692 895.648615,240.520251 C895.948348,257.225826 896.557547,273.923376 896.808622,290.626945 C897.301042,323.442256 897.575473,356.259572 898.07957,389.072877 C898.237222,399.360638 899.09555,409.636362 899.187027,419.922117 C899.39723,444.090733 899.210383,468.263361 899.457566,492.431977 C899.547096,501.259229 900.40737,510.078457 900.91536,518.901697 C901.645231,518.933796 902.375101,518.965895 903.106918,519 C903.420276,516.267564 904.11122,513.517073 903.984709,510.806705 C903.324906,496.851621 902.030602,482.918606 901.742547,468.95951 C901.074959,436.507321 900.975696,404.0451 900.420995,371.590905 C899.749514,332.195279 898.858099,292.803665 898.036751,253.410045 C897.66695,235.681312 897.120034,217.958596 896.863119,200.22906 C896.372646,166.395606 896.086537,132.558942 895.611635,98.7252879 C895.311901,77.2626264 894.833106,55.8023722 894.401023,34.3419175 C894.377667,33.2244676 894.039007,32.1138387 893.846321,31 Z M1055,538.829742 C1054.81343,538.219158 1054.62686,537.608575 1054.44029,537 C1042.53186,537.600541 1030.62944,538.424025 1018.71499,538.755427 C997.48003,539.343917 976.237042,539.592971 955.000072,540.060951 C939.13955,540.408421 923.285046,540.930631 907.426531,541.276092 C885.982929,541.746081 864.533308,542.053381 843.089706,542.569565 C834.26551,542.780457 825.450342,543.370956 816.629757,543.76663 C797.932357,544.60819 779.237163,545.501972 760.535951,546.245116 C747.144382,546.77536 733.746193,547.158983 720.348004,547.494402 C701.365933,547.968408 682.381654,548.362073 663.397376,548.739671 C658.639019,548.83407 653.831912,548.354039 649.140159,548.916419 C647.40806,549.123294 645.378652,551.292472 644.503976,553.069993 C643.468207,555.174898 643.507728,557.82009 643.128367,560.236313 C642.656323,563.243035 643.401001,565.32183 646.793981,566.1654 C661.728871,569.875095 676.157613,573.807734 692.273516,572.855706 C730.764872,570.582087 769.398664,570.720673 807.975281,569.905223 C828.601181,569.46737 849.22648,569.027509 869.853584,568.669997 C896.485058,568.208042 923.116531,567.768181 949.75001,567.438787 C962.372626,567.284133 975.019316,567.000935 987.621871,567.52917 C999.991714,568.049371 1011.25618,566.667524 1021.82651,558.974977 C1032.25241,551.38888 1043.89202,545.475862 1055,538.829742 Z M866,83.9251582 C865.58956,83.6168389 865.17912,83.3083193 864.76868,83 C795.179278,230.292275 725.590676,377.584349 655,527 C691.020215,526.439055 725.030275,524.982602 759.171075,523.189582 C758.262902,514.384753 757.499884,506.988296 756.687012,499.109025 C743.875278,499.109025 731.168856,499.109025 716.904964,499.109025 C718.98119,494.93199 720.486003,491.740615 722.136773,488.625368 C724.482688,484.197911 727.733173,480.078974 729.19534,475.389075 C733.76604,460.73239 737.550898,445.831293 741.878137,431.094473 C747.527793,411.854067 753.40169,392.679773 759.185291,373.479435 C765.306853,353.157208 771.14331,332.742825 777.634068,312.538797 C786.097542,286.194427 794.178004,259.671757 804.058596,233.852271 C818.247808,196.774222 833.848332,160.234481 848.979754,123.520045 C854.453622,110.239478 860.315906,97.1187793 866,83.9251582 Z M772.839664,430.339494 C769.166288,429.497606 765.492911,428.655718 761.198439,427.670189 C758.998403,432.085116 756.734283,436.627723 754.477216,441.156365 C757.597208,442.584782 760.037258,443.70198 762.477309,444.819178 C759.024601,446.51293 754.756931,440.222706 751.646612,445.996226 C749.694249,449.621134 747.413805,453.070483 745.419526,456.370207 C751.620414,459.091382 757.411201,461.631012 763.201989,464.172637 C757.015005,462.323276 750.828022,460.473914 744.424602,458.558718 C741.619189,462.921775 738.807529,467.294807 736.022066,471.625944 C737.398877,473.068326 738.452645,474.173554 739.506615,475.276787 C735.309277,473.030421 733.01916,474.985517 731.504305,478.78798 C729.123503,484.761 735.54647,492.908565 742.917607,492.950459 C759.475208,493.042229 776.033414,492.978389 792.591217,492.978389 C792.657518,492.314056 792.724021,491.647727 792.790322,490.983393 C790.547362,489.96794 788.3042,488.954482 786.061038,487.939029 C790.917763,488.960467 795.774286,489.97991 801,491.077158 C797.800406,481.114146 795.684003,470.74216 782.174047,470.225456 C780.992512,470.179571 779.857127,468.952649 778.70038,468.272355 C783.48113,469.351648 788.26188,470.428946 794.959323,471.939158 C790.358131,464.168647 786.466504,457.597129 782.574676,451.025611 C783.15184,450.193698 784.397056,449.12837 784.19654,448.569771 C782.974298,445.172292 780.938303,442.004238 780.105405,438.538929 C779.066751,434.217767 776.659347,431.622277 772.635924,430.136005 C773.786423,429.91057 774.936721,429.685136 776.653301,429.347981 C774.070169,423.418852 771.673244,417.916652 768.660463,411 C766.007603,416.975014 764.14109,421.178471 762.280622,425.369959 C766.09708,427.165455 769.468372,428.753472 772.839664,430.339494 Z M934.112924,439.638486 C934.93505,438.23566 935.759226,436.832834 936.698212,435.230451 C929.666065,434.078553 923.388388,433.049156 917,432 C917.235772,435.339121 917.21732,437.909652 917.637609,440.409053 C918.30597,444.380433 919.474578,448.091007 925.061342,447.128787 C925.061342,453.113519 925.061342,459.098252 925.061342,465 C931.228309,465 936.35173,465 942,465 C940.976956,455.901389 940.007217,447.286852 939.029277,438.591306 C936.839675,439.057598 935.4763,439.348042 934.112924,439.638486 Z M814.280617,461.611592 C812.788955,464.828478 811.162805,467.991449 809.840295,471.278224 C808.263661,475.197993 808.574234,478.053453 813.668384,479.167682 C818.458497,480.218012 823.04757,482.198863 828.408322,484 C829.780746,477.88572 832.797344,472.494291 830.103599,466.332087 C831.372234,463.298909 832.431114,460.155906 833.955655,457.260509 C836.71615,452.016845 833.58269,450.331524 829.467003,449.079515 C825.483825,447.867442 821.495299,446.675337 815.938459,445 C815.372772,450.666991 814.826695,456.138293 814.280617,461.611592 Z M917.785532,186.761529 C918.358685,185.514572 919.634349,184.092001 919.377624,183.053172 C918.567647,179.764882 917.081031,176.653611 916.048161,173.411483 C914.585426,168.812213 911.944542,166.687389 906.429931,168.849544 C908.238947,174.327885 902.465621,181.90215 911.522638,185.544677 C909.992239,185.544677 908.459849,185.544677 906.997114,185.544677 C905.619954,200.549304 905.619954,200.549304 913.97844,204.169553 C911.606222,204.053949 909.234004,203.938345 906.714518,203.815717 C906.714518,208.660244 906.714518,213.706476 906.714518,218.141973 C912.125643,219.916173 916.971575,221.505726 921.819497,223.09528 C916.931772,222.254342 912.044048,221.413404 907.158314,220.570459 C903.205944,230.400806 905.152277,235.677242 913.886895,238.802161 C911.361438,238.802161 908.833991,238.802161 906.278683,238.802161 C903.65173,249.563762 905.259743,253.268708 913.884905,256.186904 C911.114664,256.329402 908.344423,256.469893 904,256.690664 C905.434873,262.597302 906.652824,267.620855 907.870775,272.644407 C907.026966,273.413093 905.54433,274.109526 905.452785,274.962507 C905.140336,277.812465 905.514478,280.732668 905.275664,283.596675 C904.947295,287.558518 906.141365,289.384899 910.445985,290.017108 C919.053236,291.281526 927.54506,293.340721 936.084646,295.070766 C936.013002,295.446077 935.943348,295.823396 935.873694,296.198707 C925.803708,294.382361 915.735713,292.566014 905.323427,290.689457 C905.323427,292.893157 905.327407,293.705997 905.321437,294.51683 C905.241832,305.208186 905.239842,305.208186 913.942618,308.503701 C911.176357,308.503701 908.410097,308.503701 905.267704,308.503701 C906.603071,311.86344 908.041925,315.285397 909.32953,318.76355 C911.470895,324.551774 915.894922,326.518646 921.642376,327.259234 C926.926134,327.939611 932.092474,329.551242 937.310558,330.753443 C930.090418,329.790077 922.872268,328.826711 914.006302,327.642573 C916.346678,332.531656 918.651232,336.615926 920.273177,340.961109 C921.602574,344.521549 923.479253,345.693644 927.326147,346.004731 C932.731301,346.440253 938.028989,348.230508 943.390361,349.454786 C936.950347,348.744304 930.512322,348.031814 923.893197,347.301261 C924.498192,349.864217 924.957909,351.813026 925.401705,353.741765 C921.485157,343.646492 912.547547,344.708201 904.199012,343.257131 C904.650768,346.689123 905.265714,349.260106 905.265714,351.831089 C905.269694,357.396535 907.715546,360.198324 913.305781,360.802435 C916.967594,361.199824 920.531892,362.496354 924.141962,363.391481 C918.62138,362.763286 913.102789,362.133085 907.124482,361.452707 C907.876745,367.206812 908.577266,372.559515 909.253906,377.723558 C916.171548,379.313112 922.557829,380.782245 928.944111,382.251379 C928.884407,382.594578 928.824704,382.937777 928.765,383.280976 C922.599622,382.151028 916.436233,381.02108 909.707652,379.786767 C910.348469,385.127428 910.949484,390.136931 911.542539,395.084217 C919.228366,396.906585 926.404723,398.608531 933.581081,400.308471 C926.719161,399.439435 919.859232,398.570398 912.310723,397.61506 C912.909748,403.152408 913.492852,408.549265 913.988391,413.129267 C922.758831,415.280785 930.631729,417.213538 938.518558,419.154319 C930.896414,418.034406 923.276261,416.9165 915.200371,415.730356 C915.200371,418.427781 914.961558,420.902427 915.250124,423.312849 C915.795416,427.856726 916.426283,431.766386 922.933961,431.826597 C928.59186,431.878779 934.231848,434.040332 939.881787,435.27063 C940.781319,445.406044 941.682842,455.53945 942.612226,466 C948.00544,466 953.008591,466 958.216724,466 C956.907227,452.025171 955.629573,438.385514 954.357889,424.82413 C952.051345,425.962106 950.284122,426.833149 948.514909,427.704193 C949.607483,426.176856 950.700056,424.64952 951.975721,422.865285 C947.060135,421.456363 942.657999,420.193952 938.253872,418.931541 C943.830177,419.58382 949.404491,420.236099 955.778832,420.982708 C952.690172,413.986262 951.673223,406.710841 944.731699,402.96977 C945.251119,402.028481 946.266078,401.043038 946.190454,400.151924 C946.025274,398.215157 945.304853,396.326558 944.811304,394.417889 C947.49995,397.643158 949.611463,402.556325 952.99864,403.72842 C959.263524,405.898001 966.276692,405.877931 972.977412,406.769044 C972.76845,408.593419 972.559488,410.417793 972.336595,412.224105 C970.557431,412.001326 968.778268,411.778548 966.997114,411.55577 C967.620021,410.586382 968.240937,409.614988 969.034993,408.376662 C963.072606,407.250728 957.406746,406.18099 950.775681,404.930621 C953.34691,410.199029 955.438522,414.479987 957.398786,418.496019 C959.502338,417.386141 961.396929,416.388656 963.291519,415.389164 C959.02073,418.787036 958.535142,422.981692 960.7382,427.742326 C959.52821,426.056435 958.316229,424.370545 957.106239,422.684654 C956.728117,423.023839 956.349995,423.361018 955.971873,423.698196 C957.181863,437.82355 958.391854,451.948905 959.587913,465.923734 C965.387111,465.923734 970.382301,465.923734 976.193439,465.923734 C975.34565,462.973425 974.991409,460.518849 973.9665,458.393422 C970.147468,450.469737 966.039869,442.690556 962.226807,434.762856 C961.659624,433.580726 962.095459,431.906877 962.067598,430.459821 C965.918472,437.544576 969.767355,444.627323 974.004312,452.424567 C974.004312,447.886711 974.163521,444.26004 973.97247,440.653438 C973.468971,431.134177 972.814223,421.622945 972.219178,412.107698 C972.515705,413.438347 972.957511,414.754948 973.082888,416.101653 C974.384424,429.869759 975.632227,443.64188 976.959634,458.09237 C982.527978,457.424035 987.461475,456.831966 992.562141,456.219828 C990.673522,436.207905 988.828684,416.685694 986.979867,397.095244 C984.309131,398.453991 982.434442,399.407322 980.559753,400.360653 C981.644366,398.935674 982.73097,397.510695 983.903148,395.973324 C981.387641,394.929677 979.118909,393.990395 976.850177,393.051113 C982.131945,393.077205 989.328203,391.090262 994.313443,388.252346 C994.444791,388.17608 994.699526,388.322592 994.896547,388.366746 C989.752098,392.89858 987.90328,398.574412 989.145113,405.305932 C989.515274,407.306924 990.152111,409.275803 990.323261,411.290844 C991.588975,426.134709 992.767123,440.984595 993.993035,456.095393 C999.965372,456.095393 1005.39242,456.095393 1011.52595,456.095393 C1011.52595,452.306153 1011.52595,448.838035 1011.51202,445.357876 C1011.85432,446.226912 1012.61455,447.170208 1012.47524,447.950936 C1011.15977,455.242413 1013.79867,458.849014 1021.40091,458.114448 C1022.06561,458.048216 1022.74225,458.104412 1024,458.104412 C1019.7113,446.931373 1015.63753,436.318291 1011.56377,425.707215 C1011.32296,425.859748 1011.08216,426.012281 1010.84135,426.164814 C1011.12395,432.645458 1011.40655,439.126101 1011.68914,445.606745 C1011.15181,443.294667 1010.44532,441.004665 1010.11098,438.662482 C1008.8194,429.636946 1008.26813,420.446835 1006.23822,411.599924 C1004.61229,404.52119 1001.36044,397.797698 998.530499,391.044101 C998.04093,389.874013 996.052804,389.342154 994.77117,388.503223 C997.226973,383.268934 994.697536,377.868063 989.356065,376.852515 C984.018574,375.838973 978.693025,374.755187 973.359514,373.717561 C959.826727,371.086368 946.29394,368.463202 932.759163,365.836023 C937.728482,373.03317 936.385154,384.38684 947.306909,386.853459 C945.7785,386.93976 944.250091,387.024055 942.789346,387.106342 C943.052042,388.872513 943.259014,390.267387 943.465986,391.662261 C939.961392,388.730015 936.456798,385.795763 933.334306,383.182633 C934.488573,383.393369 936.3155,383.72854 939.738499,384.354728 C932.984046,377.133497 934.42688,365.888205 923.881256,363.174724 C925.262397,363.174724 926.645527,363.174724 928.118213,363.174724 C927.093303,359.760796 926.161929,356.663975 925.232545,353.565148 C926.132077,354.787418 927.471425,355.885254 927.855518,357.254037 C929.61677,363.523944 934.184086,365.131561 939.947461,365.785847 C945.517795,366.420063 950.994594,367.891204 956.519155,368.960941 C968.316561,371.244922 980.115957,373.506825 992.725331,375.93531 C990.464559,370.020644 988.711267,364.872657 986.472387,359.947448 C985.861422,358.602749 983.901158,357.344352 982.372749,357.055343 C976.635245,355.973563 970.768384,355.57216 965.046801,354.420135 C957.695313,352.93896 950.439351,350.980116 943.141597,349.225987 C956.698265,351.495918 970.254934,353.763842 984.056387,356.071907 C982.23145,343.391601 979.777638,340.487454 969.339481,337.784008 C967.329464,337.262185 965.37119,336.53966 963.387044,335.911465 C967.844904,336.258678 972.300773,336.607898 977.465123,337.011308 C974.042124,329.183959 974.770506,319.457976 963.703473,318.602988 C965.918472,318.472533 968.13148,318.342077 970.274835,318.215635 C967.858834,308.003955 965.213971,298.277972 951.96577,298.717508 C955.661415,299.034616 959.35507,299.351724 964.967196,299.833407 C959.277455,292.712526 961.526286,282.462713 950.998574,281.198295 C952.616538,281.021678 954.234502,280.843054 955.816644,280.670451 C953.993698,270.103529 950.41348,262.119633 938.801154,261.790483 C938.709609,261.788476 938.626024,261.445277 938.538459,261.262639 C942.053003,261.647985 945.565558,262.033332 949.740821,262.492938 C945.547647,255.773459 947.183522,245.981245 937.232943,243.843777 C938.834986,243.765503 940.43902,243.685223 941.859962,243.614977 C940.007164,231.817757 935.141331,223.28394 921.843378,223.452529 C921.769744,223.454536 921.690139,223.093273 921.592623,222.884544 C925.885303,223.414395 930.177983,223.94224 935.555275,224.604554 C931.817838,218.23831 932.599954,210.201629 925.085276,206.612087 C925.863412,206.185999 927.363959,205.532315 927.312216,205.366937 C925.222594,198.611132 924.426548,191.142837 917.785532,186.761529 Z M830.933791,412.658576 C829.209545,412.50342 827.4855,412.348265 825.812609,412.199002 C821.044848,427.74203 821.062438,427.679182 836.068318,431.642517 C839.203625,432.471322 840.782702,432.013712 841.035435,428.614042 C841.178987,426.667727 841.488333,424.613392 842.299101,422.859547 C844.20572,418.743021 842.390085,416.580667 838.629415,415.158737 C845.307636,414.858246 846.700702,412.077234 845.716053,401.002286 C840.560297,399.360389 835.402316,397.720457 829.994837,396 C828.716007,400.656624 827.468112,405.203264 826.246501,409.651705 C828.011387,410.782964 829.472589,411.719788 830.933791,412.658576 Z M801.457335,475.080486 C803.39361,474.60657 806.605308,474.652562 807.041506,473.566756 C808.780936,469.239529 809.656113,464.560364 810.721183,460.507088 C806.017156,458.667417 802.212737,457.179682 798.408517,455.691948 C802.650127,456.515801 806.891935,457.339654 811.281726,458.193501 C812.323755,454.242207 813.576335,450.816818 813.986313,447.291448 C814.151378,445.873701 812.792529,443.264167 811.5761,442.85424 C801.653783,439.510837 791.600965,436.557365 780,433 C784.178048,441.876415 783.93214,451.694662 794.581255,454.39418 C792.662062,454.286199 790.742671,454.178218 788.419459,454.048241 C789.603709,456.925728 790.901379,459.59925 791.813502,462.40075 C793.600802,467.88777 795.165037,473.452776 801.673051,475.28045 C800.196611,475.456418 798.720172,475.630387 796.919762,475.844349 C798.914038,480.459525 800.702728,484.600786 802.603647,489 C806.922326,480.973433 806.657548,478.355901 801.457335,475.080486 Z M959.078182,475.18753 C954.966631,467.484895 948.571765,473.120182 943,471.204104 C943.674706,479.899066 944.258396,487.408076 944.905401,495.742009 C951.450642,489.51778 961.67016,486.960319 958.963422,475.042312 C959.602513,477.281098 960.241604,479.519884 960.924225,481.90994 C963.905989,480.131012 966.873904,478.360153 969.83984,476.589293 C967.827594,478.543693 965.763904,480.449686 963.816952,482.470645 C962.590214,483.743324 960.48893,485.258035 960.568075,486.548867 C961.175508,496.316833 962.224171,506.056562 963.156096,516 C968.684332,516 974.070107,516 980,516 C978.628824,501.706055 977.295241,487.827597 975.931979,473.614329 C973.199519,474.995922 971.434599,475.887403 969.679572,476.768799 C971.046791,474.901127 972.414011,473.033455 974.632032,470 C969.778503,470.512299 966.036952,470.588942 962.475455,471.442101 C961.13,471.766826 960.198075,473.886614 959.078182,475.18753 Z M879.226503,86.5248521 C875.196739,87.6026972 871.180912,97.2045693 872.630353,102.297794 C870.424336,106.812663 868.144653,111.295623 866.111852,115.888757 C865.892843,116.383028 867.103365,117.519271 867.650887,118.357907 C860.668486,119.130319 864.190547,125.6596 861.158269,128.726974 C864.801781,130.364913 867.720572,131.675947 870.637372,132.987181 C870.380535,133.617312 870.125688,134.247844 869.86885,134.878176 C866.601636,134.139679 863.33243,133.40098 858.751162,132.365479 C860.781972,134.102352 861.751584,134.92955 862.719205,135.756747 C854.086273,136.489024 856.95529,144.437705 853.731877,148.613025 C858.120019,150.904575 861.715746,152.78373 865.313465,154.662885 C861.184152,153.500755 857.054839,152.338826 852.67267,151.105856 C851.004221,156.217944 849.461204,160.949947 847.782799,166.094746 C850.120221,166.872777 852.214743,167.432871 854.201751,168.258463 C859.238955,170.352545 864.228376,172.565429 869.235715,174.730752 C862.04426,172.468501 854.850813,170.205849 847.446322,167.876572 C846.291548,171.32383 845.642485,174.526862 844.187071,177.300241 C842.309568,180.875332 843.926252,182.630869 846.689746,184.225462 C839.39675,183.363948 841.343938,190.019456 839.199642,193.418351 C836.79791,197.225024 839.595849,198.654659 841.815802,200.496689 C835.9384,200.764996 831.877975,209.461807 834.341825,216.504023 C833.155394,217.671973 830.791094,219.622569 830.965306,219.889472 C832.627185,222.438091 834.719118,224.69974 837.210045,227.667777 C833.986235,227.242338 831.379232,226.897171 829.050571,226.588126 C827.089246,232.439916 825.045893,237.771948 823.608797,243.264523 C823.144896,245.036516 824.273987,247.233947 824.674375,249.23672 C820.556809,250.529091 816.872681,259.814493 818.378666,265.102376 C814.451239,268.236976 811.862156,276.745752 813.456341,281.277076 C812.213167,282.978831 810.533966,284.514023 809.820196,286.418464 C808.448006,290.074829 807.79078,294.000104 806.528294,297.706639 C804.967557,302.288133 803.092641,306.76126 801.434147,311.071838 C805.762957,313.048523 808.972234,314.513477 812.181709,315.980438 C808.666019,315.211839 805.15013,314.445246 801.634241,313.676647 C801.530909,313.995726 801.427577,314.314805 801.324244,314.633884 C803.347488,315.896153 805.370931,317.158422 807.394175,318.420691 C807.226335,318.882252 807.058494,319.343812 806.890654,319.805373 C804.464234,319.432111 802.037815,319.060856 799.251026,318.631403 C798.288781,321.737909 797.312001,324.892578 796.487333,327.555584 C798.376982,328.968361 799.764901,330.00587 801.15282,331.045386 C799.486162,330.808585 797.819505,330.573791 795.098419,330.188488 C794.20327,335.498445 793.329026,340.683982 792.454981,345.869519 C790.50401,350.934648 788.553039,355.999778 786.736062,360.717733 C790.391918,362.397414 792.661049,363.438936 794.93018,364.482465 C793.713884,364.410221 792.311232,364.707225 791.313746,364.199508 C787.373975,362.190715 786.061515,363.816212 784.984389,367.653188 C782.094467,377.945997 781.920455,377.897834 791.692631,381.696681 C792.390672,381.967597 793.103447,382.200384 793.809452,382.449226 C793.71707,382.736196 793.624489,383.023167 793.532107,383.310137 C789.574417,382.12814 785.616728,380.94815 781.325149,379.66782 C779.568299,384.367714 777.901044,388.828801 776.043252,393.799611 C780.928145,395.726127 785.471186,397.518187 790.014028,399.310248 C785.207977,398.17842 780.401927,397.048599 775.985911,396.009083 C769.720465,402.005362 773.924639,405.256356 780.104075,407.991607 C779.625441,408.342794 779.146807,408.693982 778.668173,409.04517 C775.966001,408.77626 773.26383,408.507351 770.561857,408.236435 C770.374505,408.748165 770.187352,409.257889 770,409.767613 C772.5632,411.256649 775.126401,412.747691 777.689601,414.236727 C776.135434,414.351114 774.581268,414.4655 772.811477,414.595942 C774.683206,419.546684 776.219056,424.174334 778.211838,428.593279 C778.959853,430.250884 780.527956,432.171379 782.132893,432.697157 C793.043916,436.265224 804.064842,439.492137 815.603425,443 C816.954311,438.04123 818.24726,433.297186 819.466542,428.822052 C816.757602,427.553763 814.486878,426.490166 812.215954,425.426569 C813.031862,425.422556 813.938758,425.179734 814.648347,425.454664 C818.747596,427.042032 821.215826,426.55639 821.055153,421.276534 C821.002989,419.560732 821.800978,417.678366 822.639185,416.103038 C824.573432,412.470754 822.49663,410.799101 819.750657,409.312072 C821.530203,408.505344 824.61584,407.979566 824.858143,406.841718 C825.788134,402.466923 829.680122,398.033931 825.559768,393.376179 C830.134665,391.246979 832.802591,382.557592 830.626638,376.874373 C831.348969,376.693762 832.639927,376.639579 832.709015,376.316486 C833.81262,371.175098 834.760132,365.997589 835.743283,360.830113 C836.976502,357.374427 837.760156,353.657858 839.556029,350.531284 C841.805847,346.61805 840.059749,344.968471 836.912193,343.493483 C838.508768,343.035936 841.284208,342.899474 841.507199,342.066658 C842.807315,337.232309 843.508144,332.231396 844.410062,327.288681 C847.237268,317.782532 850.183933,308.310499 852.702535,298.722073 C852.941454,297.804971 850.739419,295.665737 849.262105,294.965368 C844.457846,292.679638 839.464443,290.799279 834.544707,288.764397 C840.874064,290.574519 847.20143,292.38464 853.964823,294.32119 C854.816966,290.947781 855.077786,286.878018 856.85574,283.663146 C859.019946,279.749912 856.306227,279.071618 854.275417,277.576562 C862.380737,278.036116 858.902478,270.68927 861.030846,267.161339 C863.75452,262.648076 858.615775,262.262773 856.740263,260.177721 C858.60582,260.464692 860.471378,260.751662 862.275215,261.028599 C864.509105,253.109819 866.868428,245.4459 868.753896,237.665588 C869.412913,234.948399 868.907202,231.942233 868.933085,229.066508 C871.07539,223.913079 873.217695,218.757644 875.320181,213.700542 C871.760291,211.873363 869.181959,210.549285 866.603627,209.225207 C869.287481,209.809182 871.973326,210.393157 875.240541,211.103359 C876.295766,206.670568 878.378341,201.939769 878.011999,197.409849 C877.874621,195.700067 872.064912,194.477934 868.869373,192.971439 C868.3995,192.750091 868.090896,192.183976 867.706635,191.777401 C871.543273,192.664602 875.37991,193.552003 879.584881,194.524893 C879.815836,193.063751 879.881538,192.067984 880.134394,191.122988 C883.118888,179.98191 883.120879,179.996761 872.614425,176.209954 C871.374039,175.763043 870.217273,175.082742 869.006752,174.496961 C873.655713,175.577415 878.304674,176.657869 884.403076,178.075062 C885.008337,172.775941 885.619571,167.411399 886.232796,162.046656 C890.816055,156.771617 889.486074,146.271707 883.865509,143.357452 C885.378662,143.357452 886.891814,143.357452 888.657822,143.357452 C888.657822,139.508234 888.602074,136.433436 888.67375,133.361848 C888.751398,129.922015 889.073939,126.430407 885.097932,124.715808 C889.13765,121.277982 888.305417,108.70446 883.865509,106.073964 C885.038202,105.37781 887.023219,104.890362 887.260147,103.953393 C889.591596,94.7414394 887.164579,89.7613976 879.015458,86.3093232 C881.683384,86.590474 884.351311,86.8718255 887.425399,87.1957208 C887.425399,83.0284277 887.425399,79.3477802 887.423408,75.6671328 C887.423408,75.0508486 887.445309,74.4331597 887.411462,73.8184809 C887.242228,70.6728428 885.784823,69.0621959 882.702771,70.5737076 C880.315574,71.7448683 877.902494,83.7400342 879.226503,86.5248521 Z M882.914918,251.201228 C881.539138,251.541489 879.050683,251.703614 878.962311,252.250034 C878.187054,257.061734 877.839594,261.943488 877.365603,266.803225 C876.142464,272.213386 874.919325,277.623546 873.696186,283.033707 C872.450954,288.818155 871.207731,294.602603 869.964508,300.387051 C866.491918,305.777196 864.798805,311.423538 867.45396,317.696362 C865.78294,322.630156 864.113927,327.561949 862.442907,332.495743 C861.055076,337.985965 859.667245,343.478188 858.237237,349.132536 C861.374418,350.183344 863.820695,350.925915 866.208728,351.822605 C868.72731,352.771334 871.191664,353.866176 873.680119,354.896969 C868.494331,353.732073 863.306535,352.567177 857.97614,351.370257 C857.15268,356.422142 856.383449,361.13977 855.632293,365.749314 C858.510385,367.204433 861.145456,368.535457 863.778518,369.866481 C860.910468,369.242 858.042419,368.615519 854.541711,367.850931 C853.655989,372.650622 852.80642,377.256163 851.890572,382.217979 C854.413171,383.132682 856.694757,383.867247 858.90203,384.779949 C864.021539,386.895576 869.106905,389.09927 874.204321,391.268939 C869.978567,389.921903 865.770889,388.520826 861.52505,387.237839 C851.587298,384.231527 851.653577,384.273559 848.960261,394.007044 C847.917881,397.769938 848.432042,400.552078 852.489087,401.913124 C849.157088,401.528829 846.176565,402.893878 846.652565,406.208427 C847.214928,410.131444 841.693731,415.32744 848.757409,418.025515 C845.214524,417.298956 843.788532,419.290487 842.94298,422.318816 C840.233597,432.016273 840.629259,432.784864 850.307923,436.217504 C851.543112,436.655841 852.655787,437.430437 853.826707,438.048912 C849.524632,437.152223 845.224566,436.255533 840.994795,435.372855 C836.340842,448.603028 836.337227,448.613036 848.564599,452.81827 C850.095028,453.342673 851.733914,453.566846 853.242251,454.141287 C861.006873,457.099562 868.745386,460.123888 876.493941,463.126197 C863.937185,459.231201 851.380429,455.336206 838.426002,451.319117 C836.820658,456.138823 835.338832,460.584242 833.766426,465.299868 C837.550323,466.644903 840.763824,467.743748 843.943182,468.928659 C847.255097,470.161607 850.532868,471.476618 853.826707,472.755602 C848.399907,471.358527 842.880718,470.233662 837.578441,468.464302 C834.263313,467.359452 833.085565,468.198097 832.633867,471.390552 C832.080743,475.301559 831.300465,479.178541 830.624224,483.037508 C833.64371,484.450595 836.831503,485.941742 840.030744,487.444898 C836.951005,486.81041 833.871266,486.17392 830.549309,485.489394 C830.086364,486.762373 829.576823,488.165452 829,489.754674 C833.433828,489.754674 837.397682,489.754674 841.549124,489.754674 C840.840145,488.717877 840.330002,487.969301 839.819858,487.222727 C848.1127,488.16345 856.385457,489.492472 864.706417,489.9188 C871.057098,490.245051 877.474059,489.512488 883.848841,489.062141 C885.439525,488.948054 886.977988,488.099401 888.538545,487.589008 C887.309381,486.320033 886.309178,484.526654 884.810883,483.874152 C879.536725,481.580388 874.091849,479.676924 868.713251,477.625346 C875.10611,479.24259 881.500977,480.857832 887.899861,482.475076 C890.579118,468.222115 890.57711,468.22812 877.584523,463.946828 C877.08643,463.784703 876.708844,463.262301 876.260962,462.894018 C880.645383,463.692632 885.029803,464.491246 891.191692,465.616111 C889.769717,459.253218 888.647,454.221349 887.522275,449.191481 C893.143894,445.446601 892.310392,434.790407 886.06214,430.523125 C887.642781,430.695258 889.221414,430.869391 891.201734,431.085558 C891.697818,426.295874 892.195911,421.47817 892.663877,416.974706 C890.117177,415.497571 888.13284,414.346686 886.148503,413.197802 C888.098697,413.478018 890.046882,413.760235 892.175826,414.06647 C892.175826,408.460159 892.175826,402.969937 892.175826,397.912047 C885.855271,395.53622 879.932387,393.31251 873.98741,391.066783 C879.936404,392.485875 885.885398,393.902964 892.543371,395.490185 C890.912519,389.807815 895.660467,383.128679 888.677127,378.613207 C889.797836,378.312976 891.492957,378.37102 891.944856,377.652468 C894.095893,374.223831 891.746021,362.372718 888.671102,359.908823 C889.79181,359.654628 891.517059,359.768715 891.934814,359.088192 C894.843032,354.32653 891.41262,343.936541 886.277043,341.352553 C887.805465,341.352553 889.331878,341.352553 892.366628,341.352553 C891.014949,335.299899 889.890224,330.270031 888.765498,325.238162 C892.838611,321.81553 892.001092,309.295902 887.522275,306.645864 C888.520469,306.513763 889.980603,306.75795 890.446561,306.189513 C893.330678,302.682817 890.390325,290.325314 886.277043,288.053567 C887.815507,287.907455 889.353971,287.761342 891.408603,287.567193 C890.416435,281.602606 889.506612,276.12039 888.594781,270.638175 C892.139675,261.729324 890.175422,255.164275 882.698006,250.999072 C884.847035,251.315315 886.996064,251.63356 889.520671,252.005846 C889.520671,246.709774 889.520671,241.651884 889.520671,236.383833 C887.351558,235.597228 885.086039,234.774596 882.949061,234 C882.187863,237.45866 881.978985,241.051423 880.573079,244.095764 C878.93821,247.636486 880.757855,249.295762 882.914918,251.201228 Z M866.430521,281.078126 C864.287641,280.807956 862.14476,280.537787 859.967153,280.263615 C859.219494,282.991324 858.684284,285.502898 857.836529,287.908405 C856.661928,291.230486 855.889756,294.354443 859.55451,296.715922 C857.903941,297.524429 854.794824,298.422992 854.839765,299.127433 C855.131883,303.72031 848.809467,308.219129 854.502706,312.820011 C847.775818,315.783868 849.628623,322.065803 848.215016,326.516591 C852.18006,328.563874 855.460771,330.256935 858.743525,331.951997 C856.230901,331.165504 853.759132,330.166878 851.187267,329.682575 C849.881928,329.436421 847.297806,329.860686 847.162983,330.417035 C845.992467,335.240056 845.246851,340.161139 844.374583,345.052203 C838.540391,351.752401 838.325899,359.647347 843.886357,362.95742 C841.690364,363.749917 837.71715,364.354296 837.606839,365.364929 C837.134343,369.683634 831.605957,374.458626 838.048081,378.515167 C836.548881,379.037494 834.048105,379.219608 833.725345,380.138184 C832.338091,384.082655 830.681393,388.323311 831.052975,392.283793 C831.20455,393.898804 836.212843,395.183609 839.106243,396.406375 C841.324706,397.342962 843.69025,397.945339 846.915806,399 C847.957626,393.280417 848.903435,388.093167 849.702163,383.710422 C846.490907,382.12743 844.239759,381.016734 841.988611,379.908039 C844.71777,380.332305 847.44693,380.756571 850.537662,381.236872 C851.653022,376.195714 852.670328,371.590829 853.595709,367.414213 C849.749147,365.627093 846.717656,364.220212 843.657565,362.791316 C846.96279,363.48375 850.268014,364.178185 855.054257,365.182815 C855.366803,359.635339 855.669135,354.289991 855.971467,348.944642 C857.432058,343.675341 858.927376,338.416046 860.265399,333.116726 C860.340982,332.816538 859.143911,332.208157 858.516776,331.723854 C865.045514,328.565875 862.112076,321.943727 864.35301,317.795128 C862.011979,316.388246 860.189816,315.293561 858.36561,314.196874 C860.298084,314.493059 862.2326,314.789245 864.373438,315.11745 C865.19668,311.989491 865.883055,308.881544 866.845206,305.857649 C868.005508,302.20336 867.421271,299.447634 863.407201,298.060765 C866.65727,298.585093 869.439542,297.664517 869.562109,294.200346 C869.727575,289.565443 874.095047,283.651738 866.199687,280.869995 C868.6306,280.289632 872.260627,282.485007 873.0042,278.000197 C873.627249,274.253851 874.315667,270.519511 875,266.637079 C872.368894,265.668472 870.154516,264.629821 867.819614,264.089483 C866.665441,263.823316 864.350967,264.181541 864.160988,264.759903 C862.855649,268.754405 861.47677,272.854974 861.243893,276.981559 C861.172395,278.248353 864.604272,279.707267 866.430521,281.078126 Z M790.039328,291.365661 C783.492716,291.26525 784.655346,297.317987 782.818533,300.884563 C780.784918,304.83069 782.739693,307.089924 786.487417,308.391242 C790.416135,309.754815 793.016641,308.993704 793.818468,304.40495 C794.125724,302.645761 794.396227,300.591365 795.441883,299.310129 C798.007612,296.169293 796.219604,294.516538 793.905211,292.795504 C799.015528,292.339641 803.104295,284.015622 801.237053,277.866492 C803.966784,273.386181 806.696317,268.905871 809.528005,264.258879 C806.115595,262.427394 803.868778,261.22247 801.621764,260.017546 C803.982986,260.417179 806.343813,260.814804 810.108925,261.451406 C811.149246,256.332485 812.251611,250.910326 813.353975,245.488166 C815.826244,240.951626 818.298513,236.415086 820.575758,232.236007 C817.150899,230.251898 815.316457,229.189556 813.482212,228.125207 C821.171893,229.283942 821.171893,229.283942 822,223.813586 C818.292783,222.672924 814.521545,221.510172 809.619293,220 C809.619293,222.723129 809.619293,224.723303 809.619293,226.723478 C807.872383,230.380423 805.825925,233.93495 804.536638,237.752552 C804.070322,239.134199 805.418293,241.146422 805.938355,242.871472 C804.328969,244.0282 802.040066,244.831483 801.250884,246.411942 C799.576294,249.76364 798.682784,253.518987 797.5081,256.991177 C799.097331,258.159954 800.464271,259.164058 801.861048,260.190252 C800.170255,259.937217 798.479462,259.684183 795.6456,259.260452 C794.995128,264.61634 794.352757,269.905958 793.710386,275.197584 C788.533876,278.418749 786.443552,287.624371 790.039328,291.365661 Z M840.269806,163.377424 C842.057419,163.377424 843.84303,163.377424 845.694701,163.377424 C846.905794,159.754898 848.393136,156.459483 849.001685,153.010672 C849.315969,151.221522 848.076851,149.160841 847.540367,147.223276 C849.201866,146.195526 851.610039,145.546483 852.370725,144.061733 C853.97217,140.936049 854.708835,137.372491 856,133.374046 C852.905207,132.518815 850.108684,131.74606 847.406246,131 C845.29434,135.498475 843.420649,139.487756 841.49291,143.592582 C842.491811,144.656191 843.540758,145.77319 844.589704,146.88979 C843.440667,146.67663 842.045408,145.942522 841.186634,146.345136 C838.330056,147.687049 835.207238,159.060434 836.543043,162.385333 C830.087619,164.922138 830.866121,171.209962 828.638511,175.692101 C831.402005,177.254744 833.435239,178.404215 835.468474,179.553885 C832.517011,179.568029 828.186103,178.39266 826.913354,179.8545 C824.566237,182.550278 823.191796,186.778219 823.120932,190.400944 C823.092707,191.840074 827.615188,193.361877 830.052387,194.867744 C830.191913,194.954004 830.208928,195.236292 830.282995,195.427538 C827.393187,194.776304 824.50338,194.12507 820.187485,193.152702 C818.945565,198.46238 817.73207,203.651135 816.518575,208.83989 C815.345717,210.220052 814.172858,211.600213 813,212.980774 C815.420584,214.638243 817.686229,216.642346 820.326411,217.807754 C821.659614,218.39743 823.670628,217.465104 825.375166,217.22007 C824.92456,215.295652 824.473953,213.371235 824.023146,211.444826 C831.512504,211.562362 829.709678,204.862562 831.428428,200.963126 C832.058797,199.532962 830.57626,197.180431 830.058793,195.250834 C831.70688,194.263525 834.101641,193.660301 834.853119,192.212207 C836.617511,188.811806 837.595393,185.007595 838.862536,181.451607 C837.447259,180.635224 836.348868,180.002318 835.238466,179.360646 C841.979349,180.569084 840.732223,174.457964 842.740035,171.298613 C845.07214,167.631263 844.719822,164.899029 840.269806,163.377424 Z M875.572331,248.444993 C878.304311,247.223721 883.447105,237.553492 881.613968,235.023002 C879.893447,232.646421 875.880982,231.796928 872.331494,230 C871.403456,233.933653 871.240788,236.426165 870.220988,238.538904 C868.552604,241.994842 868.429561,244.881119 871.774671,247.375631 C870.043722,248.614891 867.497351,249.520351 866.757005,251.169367 C865.395186,254.205555 865.094877,257.68148 864,262.528588 C868.035405,262.528588 874.162546,263.727872 874.923747,262.300724 C877.071792,258.267131 880.441928,253.198156 875.572331,248.444993 Z M766.374217,391.5292 C764.582743,394.283365 762.791269,397.039578 761,399.795791 C761.326862,400.494059 761.653929,401.192326 761.980996,401.892642 C765.033693,401.718587 768.910837,402.619578 770.919055,401.087893 C773.152234,399.384202 774.481459,395.380936 770.276014,392.985119 C779.262147,391.881405 775.794248,383.250323 781,377.766565 C776.073035,377.541317 770.949666,376.372077 770.420647,377.449171 C768.298202,381.763688 767.599486,386.774426 766.374217,391.5292 Z M916.646399,455.347219 C916.808986,453.217316 917.674036,449.510625 917.019516,449.223748 C913.478025,447.679981 909.559246,446.986525 905.771788,446 C905.181887,446.559306 904.589901,447.120676 904,447.682045 C905.171465,452.83963 906.342929,457.99515 907.514394,463.152735 C907.316371,464.574734 907.118347,465.996733 906.920324,467.418732 C910.257539,467.633373 913.694808,468.363979 916.881942,467.775779 C917.967944,467.573521 919.07896,464.019555 918.995581,462.046506 C918.899696,459.784516 917.486435,457.578251 916.646399,455.347219 Z M892.163002,515.893459 C893.815641,516.775661 895.468281,517.659846 897.974718,519 C897.974718,511.835329 897.904059,506.125795 897.998271,500.418244 C898.072856,495.941811 895.727364,495.533421 892.308246,496.322447 C892.308246,503.130272 892.308246,509.585217 892.294507,516.026285 C891.503517,511.938417 890.714489,507.852532 889.923499,503.764665 C889.642825,503.715103 889.362152,503.667524 889.079515,503.617962 C888.720331,508.272818 888.359184,512.925691 888,517.580547 C888.437694,517.852146 888.877351,518.125728 889.315045,518.397327 C890.265019,517.562704 891.213029,516.728081 892.163002,515.893459 Z M763.469256,372.947859 C761.623549,377.502523 759.706333,382.029073 758.026552,386.643984 C757.824771,387.198256 758.82013,388.822914 759.419696,388.9173 C760.685756,389.116115 763.027051,388.965498 763.231023,388.367045 C764.798061,383.780249 765.958749,379.050868 767.245525,374.367677 C770.553496,368.909309 775.205211,363.808406 771.898635,356.590828 C776.706715,355.269413 780.298733,346.539639 778.406216,340.774012 C781.38572,339.213618 786.152369,329.158412 785.196848,326.180208 C785.004827,325.581755 784.106873,325.214249 783.512486,324.724241 C789.143227,324.489278 789.25079,319.107223 788.870534,316.327833 C788.591068,314.287472 783.731596,312.881711 780.589154,311 C779.122707,315.361875 778.169577,318.195487 777.127208,321.294185 C779.331858,322.507156 781.534516,323.720126 783.737174,324.933097 C781.418985,324.639895 779.100995,324.348702 776.575249,324.031402 C775.452607,327.571911 774.122208,330.758971 773.522443,334.078575 C773.216883,335.771512 774.224393,337.705437 774.638313,339.52891 C773.404123,340.555115 771.545867,341.344349 771.053068,342.653715 C769.610524,346.489434 768.711773,350.532 767.632554,354.375751 C769.474078,355.377858 770.79631,356.094796 772.130095,356.825791 C770.350321,356.906121 768.570546,356.988458 765.797604,357.114976 C765.023546,362.378546 764.246301,367.664206 763.469256,372.947859 Z M792.011987,326.791763 C790.662756,326.769889 789.001512,326.232996 788.027999,326.831532 C785.818463,328.191662 783.863942,339.432612 784.992082,342.375581 C778.485559,344.684221 780.283876,351.518671 777.214035,355.692518 C779.321604,357.249507 780.981468,358.474419 782.641332,359.701319 C780.741837,359.285724 778.84254,358.872118 776.524924,358.36704 C774.736074,363.411847 773.030059,368.222011 771,373.946882 C774.530957,374.380373 777.341247,375.40047 779.787652,374.831761 C782.139388,374.282937 783.833175,362.505094 782.43661,359.522355 C784.134144,356.116067 785.572916,352.540756 787.594494,349.341271 C790.125904,345.334458 787.79251,343.737699 784.782035,342.196617 C790.228659,342.105146 794.374768,333.033642 791.820479,326.708246 C793.797484,323.689714 795.774686,320.67317 798,317.276824 C795.45222,316.302463 794.092339,315.781478 792.050052,315 C792.310392,319.428374 785.715116,322.790915 792.011987,326.791763 Z M860.231201,115.836011 C862.820801,111.140478 865.4104,106.444945 868,101.749411 C867.118035,101.166274 866.238155,100.583137 865.358275,100 C857.975205,100.656709 859.447232,108.734156 855.929797,112.682475 C857.643686,113.955782 859.048992,115.00172 860.473064,116.060155 C858.644498,115.763043 856.815932,115.465932 854.970686,115.165998 C850.358613,126.85071 850.406569,127.005918 860.231201,126.999871 C860.231201,123.307946 860.231201,119.571878 860.231201,115.836011 Z M637,578.899202 C647.642193,578.899202 658.284586,578.899202 668.926979,578.899202 C669.100121,578.32195 669.273262,577.744698 669.446604,577.165442 C667.525014,576.153248 665.707028,574.780271 663.662995,574.190993 C657.043538,572.28486 650.355746,570.607222 643.663745,568.963659 C640.683466,568.234077 638.91618,566.827026 639.480293,563.485781 C641.240365,553.065186 642.932102,542.634569 644.809405,532.236022 C645.044068,530.937206 645.946247,529.225495 647.025576,528.694343 C656.701263,523.932017 658.176573,513.631683 662.330367,505.441925 C671.703456,486.963859 679.991405,467.936603 688.806193,449.17392 C711.620196,400.61062 734.406745,352.033291 757.3488,303.530122 C772.565016,271.360368 788.082826,239.332924 803.36898,207.194839 C817.069405,178.390984 830.618933,149.515373 844.270863,120.688067 C854.963956,98.1065038 865.7332,75.5606178 876.424289,52.9770501 C879.45627,46.5709599 882.149583,39.9983084 885.353904,33.6832155 C886.736631,30.9617145 889.025145,28.7014135 891.393818,25.5852568 C886.233639,24.6808959 881.141594,23.7887615 875.516498,22.8026232 C880.778879,18.0563319 890.423905,21.7699842 891.736494,12 C890.89283,17.1008601 901.359476,19.9490358 894.900736,24.8340279 C895.968843,28.6302592 897.177226,31.5147136 897.549962,34.5037947 C899.297409,48.4574503 900.932634,62.4279424 902.377484,76.4158723 C903.828346,90.4368739 905.152959,104.474512 906.219062,118.528986 C906.559734,123.024533 906.778165,124.553649 912.617684,123.942323 C925.222549,122.622462 938.031816,123.221561 950.756918,123.100298 C954.263836,123.066825 957.778769,123.16584 961.277671,123.390928 C963.087241,123.50738 964.870759,124.033922 966.664297,124.375062 C966.614198,124.974762 966.564099,125.574663 966.514,126.174564 C946.592703,126.174564 926.673411,126.174564 907.269134,126.174564 C903.848386,139.605085 909.611755,149.61559 913.571566,160.015941 C936.15812,219.319529 958.68656,278.646166 981.327221,337.930712 C993.910042,370.880156 1006.6632,403.767465 1019.36826,436.670809 C1021.63273,442.531517 1023.85311,448.424294 1026.49632,454.114633 C1027.35401,455.96264 1029.25576,458.057181 1031.0974,458.586329 C1038.37776,460.682874 1045.82445,462.204173 1053.7601,464.068215 C1057.9644,424.275934 1062.05046,385.578025 1066.13852,346.880117 C1066.99421,346.93223 1067.8519,346.986347 1068.70759,347.040465 C1068.31281,352.420129 1068.06632,357.815829 1067.48918,363.177454 C1066.39903,373.297397 1065.10248,383.393288 1063.91814,393.503209 C1062.30295,407.289101 1060.64168,421.070984 1059.14072,434.868902 C1058.12271,444.215168 1056.98847,453.573459 1056.61574,462.955803 C1056.41935,467.894511 1055.34322,470.189488 1049.93456,469.762562 C1044.40765,469.325614 1038.82063,469.666353 1032.13745,469.666353 C1036.28563,480.411652 1040.14124,490.385278 1043.98682,500.360908 C1044.49783,501.685781 1044.97277,503.024684 1045.44771,504.361583 C1047.38954,509.815408 1049.50371,513.475344 1056.94038,511.00599 C1061.98232,509.330356 1068.03226,510.685294 1075,510.685294 C1071.97203,516.704345 1069.77169,520.789202 1067.8499,525.002338 C1066.61145,527.718227 1063.76784,531.203784 1072.47101,531.21581 C1071.84377,531.871231 1071.21654,532.524648 1070.5893,533.180069 C1049.5518,545.967797 1028.5143,558.755524 1005.94779,572.471264 C1025.89313,572.471264 1044.11508,572.471264 1062.33902,572.471264 C1062.36107,572.928255 1062.38311,573.385246 1062.40716,573.842237 C1060.87013,573.914393 1059.3331,574.044676 1057.79606,574.050689 C1041.04702,574.114828 1024.29398,573.974524 1007.55295,574.361362 C1004.10215,574.441536 1000.20045,575.74837 997.356841,577.716638 C988.130641,584.098475 977.339354,585.06457 966.960882,587.622116 C947.298095,592.464615 927.238525,596.232786 908.182936,602.863163 C888.953003,609.553669 872.300154,621.313167 859.216345,637.486235 C858.068079,638.905312 855.695399,640.063824 853.869798,640.095894 C829.205144,640.530837 804.536283,640.745302 779.868222,640.999854 C779.273048,641.005867 778.676071,640.825476 777.23623,640.598985 C777.23623,631.874067 777.268895,623.064966 777.22581,614.255865 C777.191542,607.290763 774.545122,603.316145 768.005822,601.53829 C747.488149,595.966208 726.915768,590.592556 706.34479,585.218905 C705.014566,584.870148 703.515008,585.172805 702.214643,585.172805 C698.029988,594.781639 694.418263,604.280235 689.771497,613.24367 C687.38539,617.845649 682.821989,620.675785 676.892893,619.918143 C674.267514,619.581413 671.56338,619.860017 668.646426,619.860017 C668.646426,606.709503 668.646426,593.873671 668.646426,580.139892 C658.320858,580.139892 647.660429,580.139892 637,580.139892 C637,579.726997 637,579.312097 637,578.899202 Z" id="Yacht"></path>
        </g>
    </g>
</svg>